<svg width="102" height="102" viewBox="0 0 102 102" fill="none" xmlns="http://www.w3.org/2000/svg">
<circle cx="51" cy="51" r="51" fill="#252532" fill-opacity="0.8"/>
<circle cx="51" cy="51" r="50.5" stroke="url(#paint0_linear_43_1751)" stroke-opacity="0.3"/>
<g clip-path="url(#clip0_43_1751)">
<path d="M11.4537 55.8317L11.4537 45.9434L16.3042 48.6901V53.1124L20.1846 55.3373L24.0649 53.1124V48.6901L28.9154 45.9434V55.8317L20.1846 60.7759L11.4537 55.8317Z" fill="#D1D1D1"/>
<path fill-rule="evenodd" clip-rule="evenodd" d="M13.879 47.3176L11.4537 45.9442L20.1846 41L28.9154 45.9442L26.4902 47.3176V54.5965L20.1846 58.3046L13.879 54.5965L13.879 47.3176ZM26.2275 47.4664L24.0649 48.6909V48.6635L20.1846 46.4386L16.3042 48.6635V48.6909L14.1417 47.4664V54.4444L20.1846 57.998L26.2275 54.4444V47.4664Z" fill="#D1D1D1"/>
<path d="M33.5641 55.0504V46.7441H35.1007V53.6264H38.8259V55.0504H33.5641Z" fill="#D1D1D1"/>
<path d="M42.1435 55.2178C41.5692 55.2178 41.0531 55.0992 40.5953 54.8618C40.1374 54.6245 39.7765 54.2804 39.5126 53.8295C39.2487 53.3786 39.1168 52.8367 39.1168 52.2038V52.0139C39.1168 51.3811 39.2487 50.8392 39.5126 50.3883C39.7765 49.9374 40.1374 49.5933 40.5953 49.356C41.0531 49.1186 41.5692 49 42.1435 49C42.7178 49 43.2339 49.1186 43.6918 49.356C44.1497 49.5933 44.5106 49.9374 44.7744 50.3883C45.0383 50.8392 45.1702 51.3811 45.1702 52.0139V52.2038C45.1702 52.8367 45.0383 53.3786 44.7744 53.8295C44.5106 54.2804 44.1497 54.6245 43.6918 54.8618C43.2339 55.0992 42.7178 55.2178 42.1435 55.2178ZM42.1435 53.8888C42.5936 53.8888 42.9662 53.7425 43.2611 53.4497C43.556 53.1492 43.7034 52.7219 43.7034 52.1682V52.0496C43.7034 51.4958 43.556 51.0726 43.2611 50.7799C42.9739 50.4793 42.6014 50.329 42.1435 50.329C41.6934 50.329 41.3209 50.4793 41.026 50.7799C40.7311 51.0726 40.5836 51.4958 40.5836 52.0496V52.1682C40.5836 52.7219 40.7311 53.1492 41.026 53.4497C41.3209 53.7425 41.6934 53.8888 42.1435 53.8888Z" fill="#D1D1D1"/>
<path d="M45.7209 52.1326V51.9428C45.7209 51.3257 45.8412 50.7997 46.0818 50.3646C46.3224 49.9216 46.6406 49.5854 47.0364 49.356C47.4399 49.1186 47.8784 49 48.3518 49C48.8796 49 49.2792 49.0949 49.5508 49.2848C49.8225 49.4746 50.0204 49.6724 50.1445 49.8781H50.3541V49.1661H51.7976V56.0959C51.7976 56.4993 51.6812 56.8197 51.4483 57.0571C51.2155 57.3023 50.9051 57.4249 50.5171 57.4249H46.6522V56.1196H50.0049C50.2221 56.1196 50.3308 56.0009 50.3308 55.7636V54.2329H50.1212C50.0436 54.3595 49.935 54.49 49.7953 54.6245C49.6556 54.7511 49.4694 54.8578 49.2366 54.9449C49.0037 55.0319 48.7088 55.0754 48.3518 55.0754C47.8784 55.0754 47.4399 54.9607 47.0364 54.7313C46.6406 54.4939 46.3224 54.1577 46.0818 53.7227C45.8412 53.2797 45.7209 52.7497 45.7209 52.1326ZM48.7709 53.7702C49.221 53.7702 49.5974 53.6238 49.9001 53.3311C50.2028 53.0384 50.3541 52.6271 50.3541 52.0971V51.9784C50.3541 51.4404 50.2028 51.0291 49.9001 50.7443C49.6052 50.4516 49.2288 50.3053 48.7709 50.3053C48.3208 50.3053 47.9444 50.4516 47.6417 50.7443C47.3391 51.0291 47.1877 51.4404 47.1877 51.9784V52.0971C47.1877 52.6271 47.3391 53.0384 47.6417 53.3311C47.9444 53.6238 48.3208 53.7702 48.7709 53.7702Z" fill="#D1D1D1"/>
<path d="M55.6473 55.2178C55.073 55.2178 54.5569 55.0992 54.099 54.8618C53.6411 54.6245 53.2802 54.2804 53.0164 53.8295C52.7525 53.3786 52.6206 52.8367 52.6206 52.2038V52.0139C52.6206 51.3811 52.7525 50.8392 53.0164 50.3883C53.2802 49.9374 53.6411 49.5933 54.099 49.356C54.5569 49.1186 55.073 49 55.6473 49C56.2216 49 56.7376 49.1186 57.1955 49.356C57.6534 49.5933 58.0143 49.9374 58.2781 50.3883C58.542 50.8392 58.674 51.3811 58.674 52.0139V52.2038C58.674 52.8367 58.542 53.3786 58.2781 53.8295C58.0143 54.2804 57.6534 54.6245 57.1955 54.8618C56.7376 55.0992 56.2216 55.2178 55.6473 55.2178ZM55.6473 53.8888C56.0974 53.8888 56.4699 53.7425 56.7648 53.4497C57.0597 53.1492 57.2072 52.7219 57.2072 52.1682V52.0496C57.2072 51.4958 57.0597 51.0726 56.7648 50.7799C56.4777 50.4793 56.1052 50.329 55.6473 50.329C55.1971 50.329 54.8247 50.4793 54.5297 50.7799C54.2348 51.0726 54.0874 51.4958 54.0874 52.0496V52.1682C54.0874 52.7219 54.2348 53.1492 54.5297 53.4497C54.8247 53.7425 55.1971 53.8888 55.6473 53.8888Z" fill="#D1D1D1"/>
<path d="M59.504 55.0505V49.1649H60.9707V55.0505H59.504ZM60.2373 48.4767C59.9735 48.4767 59.7484 48.3897 59.5622 48.2157C59.3837 48.0416 59.2944 47.8122 59.2944 47.5274C59.2944 47.2427 59.3837 47.0132 59.5622 46.8392C59.7484 46.6652 59.9735 46.5781 60.2373 46.5781C60.509 46.5781 60.734 46.6652 60.9125 46.8392C61.091 47.0132 61.1803 47.2427 61.1803 47.5274C61.1803 47.8122 61.091 48.0416 60.9125 48.2157C60.734 48.3897 60.509 48.4767 60.2373 48.4767Z" fill="#D1D1D1"/>
<path d="M62.0723 57.4249V49.1661H63.5158V49.8781H63.7255C63.8571 49.6487 64.0627 49.4469 64.3425 49.2729C64.6218 49.0909 65.0215 49 65.5414 49C66.0072 49 66.4378 49.1186 66.8333 49.356C67.2294 49.5854 67.5474 49.9255 67.788 50.3765C68.0287 50.8274 68.149 51.3732 68.149 52.0139V52.2038C68.149 52.8446 68.0287 53.3904 67.788 53.8413C67.5474 54.2923 67.2294 54.6364 66.8333 54.8737C66.4378 55.1031 66.0072 55.2178 65.5414 55.2178C65.1919 55.2178 64.8971 55.1743 64.6564 55.0873C64.4236 55.0082 64.2336 54.9053 64.0864 54.7787C63.9465 54.6443 63.8339 54.5098 63.7487 54.3753H63.5391V57.4249H62.0723ZM65.0989 53.9125C65.5569 53.9125 65.9334 53.7662 66.2282 53.4735C66.5308 53.1729 66.682 52.7378 66.682 52.1682V52.0496C66.682 51.48 66.5308 51.0488 66.2282 50.7562C65.9256 50.4556 65.5492 50.3053 65.0989 50.3053C64.6487 50.3053 64.2723 50.4556 63.9697 50.7562C63.6671 51.0488 63.5158 51.48 63.5158 52.0496V52.1682C63.5158 52.7378 63.6671 53.1729 63.9697 53.4735C64.2723 53.7662 64.6487 53.9125 65.0989 53.9125Z" fill="#D1D1D1"/>
<path d="M71.37 55.2178C70.6171 55.2178 70.0001 55.0517 69.5189 54.7194C69.0382 54.3872 68.747 53.9125 68.6458 53.2955L69.9965 52.9395C70.0507 53.2164 70.14 53.4339 70.264 53.5922C70.3961 53.7504 70.5552 53.8651 70.7416 53.9363C70.9352 53.9995 71.1448 54.0312 71.37 54.0312C71.7113 54.0312 71.9638 53.9718 72.1269 53.8532C72.2896 53.7266 72.3711 53.5724 72.3711 53.3904C72.3711 53.2085 72.2937 53.0701 72.1383 52.9751C71.9834 52.8723 71.735 52.7892 71.3932 52.7259L71.0674 52.6666C70.6636 52.5875 70.2949 52.4807 69.9614 52.3462C69.6278 52.2038 69.3599 52.01 69.158 51.7648C68.9566 51.5195 68.8554 51.2031 68.8554 50.8155C68.8554 50.2301 69.065 49.7832 69.4843 49.4746C69.903 49.1582 70.4545 49 71.1371 49C71.7815 49 72.3169 49.1464 72.7434 49.4391C73.1704 49.7317 73.4498 50.1154 73.582 50.5901L72.2199 51.0172C72.1579 50.7166 72.0298 50.503 71.8357 50.3765C71.6493 50.2499 71.4164 50.1866 71.1371 50.1866C70.8578 50.1866 70.6445 50.238 70.4968 50.3408C70.3497 50.4358 70.2758 50.5703 70.2758 50.7443C70.2758 50.9342 70.3533 51.0765 70.5087 51.1715C70.6636 51.2585 70.8732 51.3257 71.1371 51.3732L71.4629 51.4325C71.8977 51.5116 72.2896 51.6184 72.6391 51.7529C72.9959 51.8795 73.2753 52.0654 73.4771 52.3106C73.6868 52.5479 73.7916 52.8723 73.7916 53.2836C73.7916 53.9007 73.5701 54.3793 73.1276 54.7194C72.6933 55.0517 72.1073 55.2178 71.37 55.2178Z" fill="#D1D1D1"/>
<path d="M76.7528 55.1465C76.3031 55.1465 75.9071 55.0436 75.5658 54.838C75.2322 54.6244 74.972 54.3317 74.7856 53.9599C74.5997 53.5881 74.5062 53.1609 74.5062 52.6784V49.166H75.9731V52.5597C75.9731 53.0027 76.078 53.335 76.2876 53.5564C76.5045 53.778 76.8112 53.8887 77.2072 53.8887C77.6569 53.8887 78.0065 53.7384 78.2549 53.4378C78.5032 53.1293 78.6271 52.7021 78.6271 52.1563V49.166H80.0941V55.0516H78.6504V54.2803H78.4413C78.3478 54.4781 78.1733 54.6719 77.9172 54.8617C77.6611 55.0516 77.2728 55.1465 76.7528 55.1465Z" fill="#D1D1D1"/>
<path d="M81.2026 55.0508V49.1652H82.6458V49.806H82.8554C82.9561 49.6082 83.1234 49.4382 83.3558 49.2957C83.5886 49.1455 83.8953 49.0703 84.2759 49.0703C84.6869 49.0703 85.0168 49.1534 85.2652 49.3195C85.5136 49.4777 85.7036 49.6873 85.8358 49.9484H86.0449C86.1771 49.6953 86.3635 49.4856 86.6041 49.3195C86.8447 49.1534 87.186 49.0703 87.6285 49.0703C87.9853 49.0703 88.3075 49.1494 88.5946 49.3076C88.8894 49.4579 89.1223 49.6913 89.2932 50.0077C89.4713 50.3162 89.5606 50.7078 89.5606 51.1825V55.0508H88.0937V51.2893C88.0937 50.9649 88.0126 50.7236 87.8495 50.5654C87.6863 50.3993 87.4576 50.3162 87.1627 50.3162C86.8292 50.3162 86.569 50.427 86.3826 50.6485C86.2044 50.862 86.1151 51.1706 86.1151 51.574V55.0508H84.6482V51.2893C84.6482 50.9649 84.5666 50.7236 84.4039 50.5654C84.2408 50.3993 84.012 50.3162 83.7167 50.3162C83.3831 50.3162 83.1234 50.427 82.937 50.6485C82.7584 50.862 82.669 51.1706 82.669 51.574V55.0508H81.2026Z" fill="#D1D1D1"/>
</g>
<defs>
<linearGradient id="paint0_linear_43_1751" x1="-1.07003e-06" y1="-3.68497" x2="110.285" y2="5.81496" gradientUnits="userSpaceOnUse">
<stop stop-color="white"/>
<stop offset="1" stop-color="white" stop-opacity="0"/>
</linearGradient>
<clipPath id="clip0_43_1751">
<rect width="79" height="20" fill="white" transform="translate(11 41)"/>
</clipPath>
</defs>
</svg>
