<svg width="1440" height="729" fill="none" xmlns="http://www.w3.org/2000/svg"><g clip-path="url(#a)" stroke="#fff" stroke-opacity=".4"><path opacity=".2" d="M-71.193 0 1425.61 728.783M-159.241 42.87 1337.57 771.651M-247.289 85.738 1249.52 814.521M-335.336 128.609 1161.47 857.392M-423.383 171.479 1073.42 900.261M-511.43 214.348 985.377 943.13M-599.478 257.217 897.33 986M-687.526 300.088 809.281 1028.87M-775.574 342.957 721.234 1071.74M-863.62 385.826 633.187 1114.61M-951.668 428.695 545.139 1157.48M-1039.71 471.564 457.093 1200.35M-1127.76 514.436 369.045 1243.22M-1215.81 557.305 280.996 1286.09M-1303.86 600.174 192.949 1328.96M-1391.91 643.043 104.902 1371.83M-1479.95 685.914 16.855 1414.7M104.902 85.738-1391.91 814.521M192.949 128.609-1303.86 857.392M280.997 171.479-1215.81 900.261M369.045 214.348-1127.76 943.13M457.092 257.217-1039.72 986M545.139 300.088-951.668 1028.87M633.187 342.957-863.621 1071.74M721.217 385.826-775.59 1114.61M809.265 428.695-687.543 1157.48M897.312 471.564-599.496 1200.35M985.359 514.436-511.448 1243.22M1073.41 557.305-423.401 1286.09M1161.45 600.174-335.353 1328.96M1249.5 643.043-247.306 1371.83"/></g><defs><clipPath id="a"><path fill="#fff" transform="translate(-1568)" d="M0 0h3704v729H0z"/></clipPath></defs></svg>